<?xml version="1.0" standalone="no"?>
<!DOCTYPE svg PUBLIC "-//W3C//DTD SVG 20010904//EN"
 "http://www.w3.org/TR/2001/REC-SVG-20010904/DTD/svg10.dtd">
<svg version="1.0" xmlns="http://www.w3.org/2000/svg"
 width="700.000000pt" height="700.000000pt" viewBox="0 0 700.000000 700.000000"
 preserveAspectRatio="xMidYMid meet">
<metadata>
Created by potrace 1.14, written by Peter Selinger 2001-2017
</metadata>
<g transform="translate(0.000000,700.000000) scale(0.100000,-0.100000)"
fill="#000000" stroke="none">
<path d="M3070 6560 c-4 -3 -7 -101 -6 -219 l1 -213 -100 -103 c-55 -56 -263
-268 -461 -471 -199 -203 -444 -453 -544 -555 l-181 -187 -670 2 c-588 1 -669
-1 -670 -14 -5 -88 -1 -4352 4 -4357 9 -9 6087 -11 6107 -2 13 6 15 258 14
2183 0 1197 -4 2179 -7 2182 -3 4 -298 6 -656 6 l-649 0 -658 658 -659 659 1
215 2 216 -27 1 c-124 4 -835 3 -841 -1z m836 -1279 c219 -220 414 -415 432
-434 l33 -34 -872 -1 -871 0 33 34 c123 127 833 834 839 834 3 0 186 -180 406
-399z m1344 -2656 l0 -875 -1751 0 -1750 0 5 303 c3 166 8 478 12 692 5 384
12 733 13 748 1 4 782 7 1736 7 l1735 0 0 -875z"/>
</g>
</svg>
